<mxfile host="app.diagrams.net" modified="2023-10-12T06:06:26.020Z" agent="Mozilla/5.0 (Windows NT 10.0; Win64; x64) AppleWebKit/537.36 (KHTML, like Gecko) Chrome/117.0.0.0 Safari/537.36" etag="QS89PT-LfyoWyncvgR5E" version="22.0.4" type="github">
  <diagram name="Page-1" id="kPOqaDjYOd2yK9eRt4LM">
    <mxGraphModel dx="1259" dy="702" grid="1" gridSize="10" guides="1" tooltips="1" connect="1" arrows="1" fold="1" page="1" pageScale="1" pageWidth="850" pageHeight="1100" math="0" shadow="0">
      <root>
        <mxCell id="0" />
        <mxCell id="1" parent="0" />
        <mxCell id="eL-B9yH6PNbIypBcvzc9-14" value="" style="endArrow=none;dashed=1;html=1;rounded=0;" edge="1" parent="1">
          <mxGeometry width="50" height="50" relative="1" as="geometry">
            <mxPoint x="254" y="920" as="sourcePoint" />
            <mxPoint x="254" y="220" as="targetPoint" />
          </mxGeometry>
        </mxCell>
        <mxCell id="eL-B9yH6PNbIypBcvzc9-13" value="" style="endArrow=none;dashed=1;html=1;rounded=0;" edge="1" parent="1" target="eL-B9yH6PNbIypBcvzc9-4">
          <mxGeometry width="50" height="50" relative="1" as="geometry">
            <mxPoint x="530" y="920" as="sourcePoint" />
            <mxPoint x="528.5" y="220" as="targetPoint" />
          </mxGeometry>
        </mxCell>
        <mxCell id="eL-B9yH6PNbIypBcvzc9-1" value="Student" style="shape=umlActor;verticalLabelPosition=bottom;verticalAlign=top;html=1;outlineConnect=0;" vertex="1" parent="1">
          <mxGeometry x="239" y="130" width="30" height="60" as="geometry" />
        </mxCell>
        <mxCell id="eL-B9yH6PNbIypBcvzc9-4" value=":Object" style="rounded=0;whiteSpace=wrap;html=1;" vertex="1" parent="1">
          <mxGeometry x="469" y="160" width="120" height="60" as="geometry" />
        </mxCell>
        <mxCell id="eL-B9yH6PNbIypBcvzc9-10" value="" style="html=1;points=[[0,0,0,0,5],[0,1,0,0,-5],[1,0,0,0,5],[1,1,0,0,-5]];perimeter=orthogonalPerimeter;outlineConnect=0;targetShapes=umlLifeline;portConstraint=eastwest;newEdgeStyle={&quot;curved&quot;:0,&quot;rounded&quot;:0};" vertex="1" parent="1">
          <mxGeometry x="249" y="250" width="10" height="630" as="geometry" />
        </mxCell>
        <mxCell id="eL-B9yH6PNbIypBcvzc9-11" value="" style="html=1;points=[[0,0,0,0,5],[0,1,0,0,-5],[1,0,0,0,5],[1,1,0,0,-5]];perimeter=orthogonalPerimeter;outlineConnect=0;targetShapes=umlLifeline;portConstraint=eastwest;newEdgeStyle={&quot;curved&quot;:0,&quot;rounded&quot;:0};" vertex="1" parent="1">
          <mxGeometry x="524" y="250" width="10" height="630" as="geometry" />
        </mxCell>
        <mxCell id="eL-B9yH6PNbIypBcvzc9-12" style="edgeStyle=orthogonalEdgeStyle;rounded=0;orthogonalLoop=1;jettySize=auto;html=1;curved=0;exitX=1;exitY=0;exitDx=0;exitDy=5;exitPerimeter=0;entryX=0;entryY=0;entryDx=0;entryDy=5;entryPerimeter=0;" edge="1" parent="1">
          <mxGeometry relative="1" as="geometry">
            <mxPoint x="259" y="250" as="sourcePoint" />
            <mxPoint x="524" y="250" as="targetPoint" />
          </mxGeometry>
        </mxCell>
        <mxCell id="eL-B9yH6PNbIypBcvzc9-16" value="SemRegistration (Programme,id)" style="edgeLabel;html=1;align=center;verticalAlign=middle;resizable=0;points=[];" vertex="1" connectable="0" parent="eL-B9yH6PNbIypBcvzc9-12">
          <mxGeometry x="-0.2302" y="3" relative="1" as="geometry">
            <mxPoint x="21" y="-6" as="offset" />
          </mxGeometry>
        </mxCell>
        <mxCell id="eL-B9yH6PNbIypBcvzc9-19" value="" style="endArrow=classic;html=1;rounded=0;dashed=1;" edge="1" parent="1">
          <mxGeometry width="50" height="50" relative="1" as="geometry">
            <mxPoint x="524" y="293" as="sourcePoint" />
            <mxPoint x="259" y="293" as="targetPoint" />
          </mxGeometry>
        </mxCell>
        <mxCell id="eL-B9yH6PNbIypBcvzc9-20" value="Course Offered" style="edgeLabel;html=1;align=center;verticalAlign=middle;resizable=0;points=[];" vertex="1" connectable="0" parent="eL-B9yH6PNbIypBcvzc9-19">
          <mxGeometry x="-0.1321" y="2" relative="1" as="geometry">
            <mxPoint x="-20" y="-11" as="offset" />
          </mxGeometry>
        </mxCell>
        <mxCell id="eL-B9yH6PNbIypBcvzc9-21" value="" style="endArrow=classic;html=1;rounded=0;" edge="1" parent="1" target="eL-B9yH6PNbIypBcvzc9-11">
          <mxGeometry width="50" height="50" relative="1" as="geometry">
            <mxPoint x="259" y="400" as="sourcePoint" />
            <mxPoint x="309" y="350" as="targetPoint" />
          </mxGeometry>
        </mxCell>
        <mxCell id="eL-B9yH6PNbIypBcvzc9-23" value="select Subject(Code)" style="edgeLabel;html=1;align=center;verticalAlign=middle;resizable=0;points=[];" vertex="1" connectable="0" parent="eL-B9yH6PNbIypBcvzc9-21">
          <mxGeometry x="0.1698" y="-2" relative="1" as="geometry">
            <mxPoint x="-29" y="-12" as="offset" />
          </mxGeometry>
        </mxCell>
        <mxCell id="eL-B9yH6PNbIypBcvzc9-22" value="loop" style="shape=umlFrame;whiteSpace=wrap;html=1;pointerEvents=0;" vertex="1" parent="1">
          <mxGeometry x="90" y="350" width="610" height="340" as="geometry" />
        </mxCell>
        <mxCell id="eL-B9yH6PNbIypBcvzc9-24" value="[more subject]" style="text;html=1;strokeColor=none;fillColor=none;align=center;verticalAlign=middle;whiteSpace=wrap;rounded=0;" vertex="1" parent="1">
          <mxGeometry x="135" y="383" width="100" height="30" as="geometry" />
        </mxCell>
        <mxCell id="eL-B9yH6PNbIypBcvzc9-25" value="alt" style="shape=umlFrame;whiteSpace=wrap;html=1;pointerEvents=0;" vertex="1" parent="1">
          <mxGeometry x="150" y="430" width="490" height="220" as="geometry" />
        </mxCell>
        <mxCell id="eL-B9yH6PNbIypBcvzc9-26" value="[noSub&amp;lt;=limit]" style="text;html=1;strokeColor=none;fillColor=none;align=center;verticalAlign=middle;whiteSpace=wrap;rounded=0;" vertex="1" parent="1">
          <mxGeometry x="170" y="470" width="60" height="30" as="geometry" />
        </mxCell>
        <mxCell id="eL-B9yH6PNbIypBcvzc9-27" value="" style="endArrow=classic;html=1;rounded=0;dashed=1;" edge="1" parent="1" target="eL-B9yH6PNbIypBcvzc9-10">
          <mxGeometry width="50" height="50" relative="1" as="geometry">
            <mxPoint x="520" y="480" as="sourcePoint" />
            <mxPoint x="570" y="430" as="targetPoint" />
          </mxGeometry>
        </mxCell>
        <mxCell id="eL-B9yH6PNbIypBcvzc9-28" value="Course Offered" style="text;html=1;strokeColor=none;fillColor=none;align=center;verticalAlign=middle;whiteSpace=wrap;rounded=0;" vertex="1" parent="1">
          <mxGeometry x="337.5" y="460" width="95" height="30" as="geometry" />
        </mxCell>
        <mxCell id="eL-B9yH6PNbIypBcvzc9-29" value="" style="endArrow=none;dashed=1;html=1;rounded=0;" edge="1" parent="1">
          <mxGeometry width="50" height="50" relative="1" as="geometry">
            <mxPoint x="150" y="552" as="sourcePoint" />
            <mxPoint x="524" y="552" as="targetPoint" />
          </mxGeometry>
        </mxCell>
        <mxCell id="eL-B9yH6PNbIypBcvzc9-31" value="[condition]" style="text;html=1;strokeColor=none;fillColor=none;align=center;verticalAlign=middle;whiteSpace=wrap;rounded=0;" vertex="1" parent="1">
          <mxGeometry x="160" y="560" width="60" height="30" as="geometry" />
        </mxCell>
        <mxCell id="eL-B9yH6PNbIypBcvzc9-32" value="" style="endArrow=classic;html=1;rounded=0;dashed=1;" edge="1" parent="1" target="eL-B9yH6PNbIypBcvzc9-10">
          <mxGeometry width="50" height="50" relative="1" as="geometry">
            <mxPoint x="520" y="600" as="sourcePoint" />
            <mxPoint x="570" y="550" as="targetPoint" />
          </mxGeometry>
        </mxCell>
        <mxCell id="eL-B9yH6PNbIypBcvzc9-34" value="" style="endArrow=classic;html=1;rounded=0;" edge="1" parent="1" target="eL-B9yH6PNbIypBcvzc9-11">
          <mxGeometry width="50" height="50" relative="1" as="geometry">
            <mxPoint x="259" y="730" as="sourcePoint" />
            <mxPoint x="309" y="680" as="targetPoint" />
          </mxGeometry>
        </mxCell>
        <mxCell id="eL-B9yH6PNbIypBcvzc9-38" value="Submitcodelist)" style="edgeLabel;html=1;align=center;verticalAlign=middle;resizable=0;points=[];" vertex="1" connectable="0" parent="eL-B9yH6PNbIypBcvzc9-34">
          <mxGeometry x="0.0629" relative="1" as="geometry">
            <mxPoint y="-6" as="offset" />
          </mxGeometry>
        </mxCell>
        <mxCell id="eL-B9yH6PNbIypBcvzc9-35" value="" style="endArrow=classic;html=1;rounded=0;entryX=1.1;entryY=0.841;entryDx=0;entryDy=0;entryPerimeter=0;dashed=1;" edge="1" parent="1" target="eL-B9yH6PNbIypBcvzc9-10">
          <mxGeometry width="50" height="50" relative="1" as="geometry">
            <mxPoint x="524" y="780" as="sourcePoint" />
            <mxPoint x="574" y="730" as="targetPoint" />
          </mxGeometry>
        </mxCell>
        <mxCell id="eL-B9yH6PNbIypBcvzc9-39" value="prompConfirmation" style="edgeLabel;html=1;align=center;verticalAlign=middle;resizable=0;points=[];" vertex="1" connectable="0" parent="eL-B9yH6PNbIypBcvzc9-35">
          <mxGeometry x="-0.0517" y="1" relative="1" as="geometry">
            <mxPoint y="-8" as="offset" />
          </mxGeometry>
        </mxCell>
        <mxCell id="eL-B9yH6PNbIypBcvzc9-36" value="" style="endArrow=classic;html=1;rounded=0;" edge="1" parent="1" target="eL-B9yH6PNbIypBcvzc9-11">
          <mxGeometry width="50" height="50" relative="1" as="geometry">
            <mxPoint x="259" y="830" as="sourcePoint" />
            <mxPoint x="309" y="780" as="targetPoint" />
          </mxGeometry>
        </mxCell>
        <mxCell id="eL-B9yH6PNbIypBcvzc9-40" value="Confirm" style="edgeLabel;html=1;align=center;verticalAlign=middle;resizable=0;points=[];" vertex="1" connectable="0" parent="eL-B9yH6PNbIypBcvzc9-36">
          <mxGeometry x="0.01" y="1" relative="1" as="geometry">
            <mxPoint y="-5" as="offset" />
          </mxGeometry>
        </mxCell>
        <mxCell id="eL-B9yH6PNbIypBcvzc9-37" value="" style="endArrow=classic;html=1;rounded=0;dashed=1;" edge="1" parent="1" target="eL-B9yH6PNbIypBcvzc9-10">
          <mxGeometry width="50" height="50" relative="1" as="geometry">
            <mxPoint x="524" y="880" as="sourcePoint" />
            <mxPoint x="574" y="830" as="targetPoint" />
          </mxGeometry>
        </mxCell>
        <mxCell id="eL-B9yH6PNbIypBcvzc9-42" value="time Table" style="edgeLabel;html=1;align=center;verticalAlign=middle;resizable=0;points=[];" vertex="1" connectable="0" parent="eL-B9yH6PNbIypBcvzc9-37">
          <mxGeometry x="-0.0402" y="-1" relative="1" as="geometry">
            <mxPoint y="-7" as="offset" />
          </mxGeometry>
        </mxCell>
      </root>
    </mxGraphModel>
  </diagram>
</mxfile>
